<svg width="14" height="15" viewBox="0 0 14 15" fill="none" xmlns="http://www.w3.org/2000/svg">
<path d="M11.588 10.108L9.401 9.67C9.169 9.624 9 9.418 9 9.18V8.678C9.144 8.478 9.279 8.211 9.419 7.932C9.526 7.721 9.687 7.403 9.759 7.328C10.183 6.913 10.635 6.398 10.773 5.727C10.898 5.119 10.773 4.803 10.628 4.553C10.628 4.064 10.628 3.169 10.458 2.524C10.441 1.745 10.298 1.305 9.939 0.913C9.685 0.639 9.311 0.575 9.011 0.524C8.892 0.504 8.729 0.476 8.672 0.445C8.153 0.158 7.626 0.016 6.981 0C5.661 0.05 4.041 0.887 3.499 2.392C3.334 2.849 3.35 3.599 3.362 4.202L3.348 4.553C3.221 4.803 3.096 5.119 3.222 5.726C3.36 6.4 3.812 6.914 4.234 7.327C4.307 7.403 4.47 7.723 4.578 7.934C4.72 8.212 4.856 8.479 5 8.679V9.18C5 9.418 4.831 9.624 4.598 9.67L2.411 10.108C1.014 10.387 0 11.624 0 13.049V14C0 14.551 0.449 15 1 15H13C13.551 15 14 14.551 14 14V13.049C14 11.624 12.986 10.387 11.588 10.108Z" fill="#E0E0E0"/>
</svg>
