<svg width="11" height="8" viewBox="0 0 11 8" fill="none" xmlns="http://www.w3.org/2000/svg">
<path d="M2.376 7.126C3.024 7.126 3.555 6.946 3.969 6.577C4.383 6.208 4.59 5.695 4.59 5.038V0.7H3.357V5.038C3.357 5.578 3.033 5.911 2.376 5.911C1.899 5.911 1.566 5.713 1.368 5.317L0.297 5.929C0.693 6.73 1.386 7.126 2.376 7.126ZM7.86002 7.126C8.53502 7.126 9.08402 6.955 9.50702 6.613C9.93002 6.271 10.146 5.812 10.146 5.227C10.146 4.867 10.047 4.552 9.91202 4.336C9.79502 4.12 9.50702 3.895 9.31802 3.778C9.22802 3.715 9.09302 3.652 8.92202 3.589C8.75102 3.517 8.61602 3.463 8.51702 3.436L8.08502 3.292C7.61702 3.148 7.30202 3.013 7.13102 2.896C6.96902 2.77 6.88802 2.608 6.88802 2.41C6.88802 2.041 7.20302 1.78 7.71602 1.78C8.26502 1.78 8.67002 2.05 8.92202 2.59L9.96602 1.987C9.53402 1.096 8.73302 0.574 7.71602 0.574C7.14902 0.574 6.65402 0.745 6.24902 1.087C5.84402 1.42 5.64602 1.879 5.64602 2.446C5.64602 3.022 5.85302 3.454 6.24002 3.742C6.63602 4.021 6.97802 4.156 7.54502 4.327C8.05802 4.471 8.40902 4.606 8.60702 4.732C8.80502 4.849 8.90402 5.02 8.90402 5.245C8.90402 5.632 8.58902 5.911 7.89602 5.911C7.17602 5.911 6.69002 5.587 6.44702 4.948L5.38502 5.569C5.73602 6.532 6.60902 7.126 7.86002 7.126Z" fill="black"/>
</svg>
