<svg width="20" height="18" viewBox="0 0 20 18" fill="none" xmlns="http://www.w3.org/2000/svg">
<path d="M16.14 13.3702C16.0916 13.0459 16.0277 12.712 15.9487 12.3705C15.8788 12.0706 15.7977 11.7649 15.7056 11.4545C15.4633 10.6394 15.1442 9.79244 14.7573 8.93617C14.5878 8.56185 14.4052 8.18589 14.2105 7.81032C14.0389 7.47935 13.8581 7.14793 13.6675 6.81861C13.4774 6.48889 13.2815 6.16673 13.08 5.85259C12.8525 5.49638 12.6182 5.15068 12.3785 4.81673C11.8309 4.0534 11.2569 3.35318 10.6719 2.73576C10.4494 2.50066 10.2252 2.27776 10.0002 2.0679C9.74411 1.82817 9.48672 1.60571 9.22972 1.40173C7.55209 0.0697982 6.05026 -0.33016 5.00012 0.275875C3.94997 0.882312 3.54538 2.38289 3.85997 4.50214C3.90791 4.82639 3.97227 5.16034 4.05176 5.50181C4.12075 5.80167 4.20189 6.10745 4.29442 6.41781C4.53669 7.23286 4.85586 8.08031 5.24322 8.93613C5.41231 9.31045 5.5948 9.68598 5.78953 10.0615C5.96111 10.393 6.1424 10.7239 6.33249 11.0537C6.52259 11.3834 6.71856 11.7055 6.92001 12.0197C7.14795 12.3763 7.3822 12.722 7.62152 13.0559C8.16911 13.8193 8.74315 14.5191 9.32817 15.1365C9.55067 15.3716 9.77522 15.5949 10.0002 15.8047C10.2563 16.0445 10.5137 16.2665 10.7703 16.4705C11.3873 16.9605 11.9802 17.3242 12.5358 17.5577C13.853 17.2246 15.0693 16.6375 16.1295 15.8519C16.2775 15.1698 16.283 14.3341 16.14 13.3702ZM15.1954 15.6988C15.073 16.2279 14.848 16.5904 14.5263 16.7759C14.205 16.9618 13.7785 16.9753 13.2591 16.8171C12.6964 16.6451 12.0395 16.2691 11.359 15.7287C11.1303 15.547 10.901 15.3494 10.6718 15.137C10.4472 14.9283 10.2226 14.7054 9.99978 14.4695C9.61704 14.0645 9.23854 13.6212 8.86929 13.1456C8.62284 12.828 8.38018 12.4962 8.14339 12.1518C7.79978 11.6526 7.46797 11.1269 7.15253 10.5801C6.8367 10.0334 6.54734 9.48328 6.28701 8.93613C6.10702 8.55888 5.94087 8.18291 5.78949 7.81072C5.56196 7.25307 5.36723 6.70338 5.20784 6.16967C5.11531 5.85846 5.03417 5.55313 4.96643 5.25412C4.8966 4.94963 4.83984 4.65187 4.79694 4.36296C4.66911 3.50375 4.67204 2.74674 4.80451 2.17351C4.9269 1.64443 5.1523 1.28191 5.47361 1.09644C5.64729 0.996339 5.85127 0.945866 6.08383 0.945866C6.28234 0.945866 6.50186 0.982453 6.74074 1.05563C7.30347 1.22721 7.96038 1.60362 8.64084 2.14365C8.86961 2.32533 9.09924 2.523 9.32805 2.73624C9.55305 2.94441 9.77724 3.16731 9.99969 3.40285C10.3828 3.80784 10.7613 4.25115 11.131 4.72722C11.3775 5.04474 11.6201 5.37656 11.8569 5.72101C12.2001 6.22023 12.5319 6.74592 12.8473 7.29223C13.1632 7.83898 13.4525 8.38906 13.7129 8.93621C13.8929 9.31387 14.059 9.68988 14.2104 10.0621C14.4379 10.6197 14.6326 11.169 14.792 11.7027C14.8846 12.0139 14.9657 12.3192 15.0338 12.6182C15.1032 12.9227 15.16 13.2205 15.2029 13.5094C15.3308 14.3686 15.3279 15.1256 15.1954 15.6988Z" fill="#5ADAFD"/>
<path d="M16.9101 5.83616C16.6052 5.7159 16.2839 5.60445 15.9483 5.50181C15.6539 5.41222 15.3485 5.32938 15.0335 5.25412C14.2067 5.05645 13.3134 4.90926 12.3785 4.81673C11.9701 4.77591 11.5533 4.74609 11.1311 4.72713C10.7585 4.7099 10.3808 4.70105 10.0002 4.70105C9.6196 4.70105 9.2419 4.70986 8.86887 4.72713C8.44621 4.74605 8.02943 4.77636 7.62106 4.81673C6.68615 4.90926 5.7933 5.05645 4.96645 5.25412C4.65146 5.32938 4.34613 5.41226 4.0517 5.50181C3.7161 5.604 3.39479 5.7159 3.08986 5.83616C1.09768 6.6226 0 7.72366 0 8.93613C0 10.1486 1.09768 11.2497 3.08991 12.0365C3.39483 12.1568 3.7157 12.2683 4.0513 12.3709C4.34569 12.4605 4.65102 12.5433 4.96605 12.6182C5.79289 12.8163 6.68615 12.963 7.6215 13.056C8.02987 13.0963 8.44666 13.1262 8.86931 13.1456C9.24194 13.1628 9.6196 13.1712 10.0002 13.1712C10.3808 13.1712 10.7581 13.1628 11.1307 13.1456C11.5533 13.1262 11.9697 13.0963 12.3785 13.056C13.3134 12.9634 14.2071 12.8163 15.0339 12.6182C15.3489 12.5429 15.6543 12.4605 15.9487 12.3705C16.2839 12.2683 16.6052 12.1568 16.9101 12.0365C18.9027 11.2497 20 10.1486 20 8.93613C20 7.72366 18.9027 6.6226 16.9101 5.83616ZM18.4544 10.054C18.0246 10.4556 17.3702 10.8362 16.5623 11.1554C16.2902 11.2627 16.0042 11.3628 15.7056 11.4545C15.4124 11.5449 15.1075 11.6277 14.7921 11.7026C14.25 11.8317 13.6767 11.9377 13.08 12.0197C12.6821 12.0748 12.2737 12.119 11.8569 12.1514C11.2526 12.1998 10.6314 12.2241 10.0002 12.2241C9.36889 12.2241 8.74772 12.1998 8.14338 12.1518C7.72659 12.119 7.31782 12.0749 6.91996 12.0198C6.32318 11.9377 5.74995 11.8318 5.20783 11.7026C4.89239 11.6278 4.5875 11.5449 4.29437 11.4545C3.99576 11.3628 3.70979 11.2627 3.43766 11.1555C2.62977 10.8363 1.97536 10.4557 1.54554 10.054C1.14852 9.68348 0.947068 9.30751 0.947068 8.93617C0.947068 8.56483 1.14852 8.18882 1.54554 7.81832C1.97536 7.41668 2.62973 7.03608 3.43766 6.71686C3.70975 6.60964 3.99576 6.50953 4.29437 6.41785C4.5875 6.32741 4.89239 6.24457 5.20783 6.16971C5.74995 6.04059 6.32318 5.93461 6.91996 5.85258C7.31782 5.79748 7.72659 5.75333 8.14338 5.72053C8.74772 5.67259 9.36889 5.6482 10.0002 5.6482C10.6314 5.6482 11.2526 5.67259 11.8569 5.72097C12.2737 5.75337 12.6821 5.79752 13.08 5.85262C13.6767 5.93465 14.25 6.04063 14.7921 6.16975C15.1075 6.24461 15.4124 6.32745 15.7056 6.41789C16.0042 6.50958 16.2901 6.60968 16.5623 6.7169C17.3701 7.03612 18.0246 7.41672 18.4544 7.81837C18.8514 8.1889 19.0529 8.56487 19.0529 8.93621C19.0529 9.30751 18.8514 9.68348 18.4544 10.054Z" fill="#5ADAFD"/>
<path d="M14.9998 0.275875C13.9497 -0.33016 12.4478 0.0697982 10.7702 1.40173C10.5137 1.60571 10.2563 1.82817 10.0002 2.0679C9.77516 2.27776 9.55057 2.50106 9.32811 2.73616C8.74309 3.35354 8.16905 4.05336 7.62106 4.81669C7.38177 5.1506 7.14748 5.49634 6.91999 5.85255C6.71854 6.16669 6.52257 6.48885 6.33247 6.81857C6.14237 7.1483 5.96113 7.47927 5.78951 7.81068C5.59478 8.18625 5.41225 8.56222 5.2432 8.93609C4.85584 9.79236 4.53667 10.6394 4.2944 11.4544C4.20187 11.7652 4.12073 12.071 4.0513 12.3708C3.97225 12.7123 3.90789 13.0458 3.85995 13.3701C3.71695 14.3336 3.72242 15.1693 3.87046 15.8514C4.93071 16.6375 6.14696 17.2246 7.4642 17.5577C8.01977 17.3243 8.61276 16.9605 9.22974 16.4705C9.4867 16.2665 9.74409 16.0441 10.0002 15.8047C10.2252 15.5949 10.4494 15.372 10.6719 15.1369C11.2565 14.5195 11.8309 13.8192 12.3785 13.0559C12.6178 12.722 12.8521 12.3762 13.08 12.0196C13.2815 11.7055 13.4775 11.3833 13.6676 11.0536C13.8581 10.7243 14.0389 10.3933 14.2105 10.0619C14.4053 9.68634 14.5878 9.31037 14.7573 8.93605C15.1442 8.08019 15.4634 7.23278 15.7056 6.41773C15.7977 6.10737 15.8789 5.80159 15.9483 5.50173C16.0278 5.16022 16.0917 4.82631 16.1401 4.50206C16.4545 2.38289 16.05 0.882312 14.9998 0.275875ZM14.7921 6.16967C14.6327 6.70338 14.438 7.25262 14.2104 7.81028C14.059 8.18246 13.8929 8.55847 13.7129 8.93613C13.4526 9.48328 13.1632 10.0334 12.8474 10.5801C12.532 11.1264 12.2001 11.6521 11.857 12.1513C11.6198 12.4962 11.3771 12.828 11.1307 13.1455C10.7614 13.6212 10.3829 14.0645 9.99979 14.4695C9.77734 14.705 9.55315 14.9279 9.32815 15.1365C9.09938 15.3493 8.86975 15.5469 8.64093 15.7286C7.96048 16.269 7.30353 16.645 6.74084 16.817C6.22146 16.9752 5.79498 16.9617 5.47367 16.7758C5.15236 16.5904 4.92692 16.2278 4.80457 15.6988C4.6721 15.1255 4.66913 14.3685 4.797 13.5093C4.8399 13.2204 4.89666 12.9226 4.96605 12.6181C5.03419 12.3191 5.11533 12.0138 5.20786 11.7026C5.36725 11.1689 5.56198 10.6192 5.78951 10.0615C5.94093 9.68936 6.10704 9.31335 6.28703 8.93613C6.54736 8.38898 6.83672 7.83889 7.15255 7.29215C7.46799 6.7454 7.7998 6.2197 8.14341 5.72049C8.3802 5.37604 8.62242 5.04422 8.86887 4.72713C9.23856 4.25107 9.61706 3.8078 9.99975 3.40277C10.2227 3.16683 10.4472 2.94393 10.6718 2.73576C10.901 2.52296 11.1302 2.32529 11.359 2.14361C12.0395 1.60362 12.6964 1.22721 13.2591 1.05559C13.498 0.982412 13.7175 0.945826 13.916 0.945826C14.1486 0.945826 14.353 0.996298 14.5262 1.0964C14.848 1.28187 15.073 1.64439 15.1953 2.17347C15.3278 2.7467 15.3308 3.50371 15.2029 4.36292C15.16 4.65183 15.1033 4.94959 15.0334 5.25408C14.9658 5.55309 14.8846 5.85842 14.7921 6.16967Z" fill="#5ADAFD"/>
<path d="M10.0002 10.8156C11.0382 10.8156 11.8797 9.97414 11.8797 8.93613C11.8797 7.89812 11.0382 7.05664 10.0002 7.05664C8.9622 7.05664 8.12073 7.89812 8.12073 8.93613C8.12073 9.97414 8.9622 10.8156 10.0002 10.8156Z" fill="#5ADAFD"/>
</svg>
